<?xml version="1.0" encoding="UTF-8" standalone="no"?>
<svg
   width="908.99487"
   height="416.86832"
   viewBox="0 0 681.74615 312.65124"
   version="1.1"
   id="svg20"
   sodipodi:docname="updated_motivated_example_02_left.svg"
   inkscape:export-filename="updated_motivated_example_02_left.pdf"
   inkscape:export-xdpi="150"
   inkscape:export-ydpi="150"
   inkscape:version="1.3 (0e150ed6c4, 2023-07-21)"
   xmlns:inkscape="http://www.inkscape.org/namespaces/inkscape"
   xmlns:sodipodi="http://sodipodi.sourceforge.net/DTD/sodipodi-0.dtd"
   xmlns="http://www.w3.org/2000/svg"
   xmlns:svg="http://www.w3.org/2000/svg">
  <defs
     id="defs20" />
  <sodipodi:namedview
     id="namedview20"
     pagecolor="#ffffff"
     bordercolor="#111111"
     borderopacity="1"
     inkscape:showpageshadow="0"
     inkscape:pageopacity="0"
     inkscape:pagecheckerboard="1"
     inkscape:deskcolor="#d1d1d1"
     inkscape:zoom="0.99268293"
     inkscape:cx="405.46683"
     inkscape:cy="213.05897"
     inkscape:window-width="3440"
     inkscape:window-height="1417"
     inkscape:window-x="-8"
     inkscape:window-y="-8"
     inkscape:window-maximized="1"
     inkscape:current-layer="svg20" />
  <g
     id="node1"
     class="node"
     transform="matrix(1.9851961,0,0,1.9851961,5.0325116,318.30634)">
    <title
       id="title2">start</title>
    <circle
       fill="#000000"
       stroke="#000000"
       cx="20.82"
       cy="-100.92"
       id="ellipse2"
       r="3.5999999" />
    <text
       text-anchor="middle"
       x="8.6099997"
       y="-88.32"
       font-family="sans-serif"
       font-size="10px"
       id="text2">start</text>
  </g>
  <g
     id="node2"
     class="node"
     transform="matrix(1.9851961,0,0,1.9851961,5.0325116,318.30634)">
    <title
       id="title3" />
    <circle
       fill="#66c2a5"
       stroke="#000000"
       cx="63.34"
       cy="-100.92"
       id="ellipse3"
       r="16.92" />
    <text
       text-anchor="middle"
       x="63.34"
       y="-97.919998"
       font-family="sans-serif"
       font-size="10px"
       id="text3">ε</text>
    <text
       text-anchor="middle"
       x="41.970001"
       y="-75"
       font-family="sans-serif"
       font-size="10px"
       id="text4">s0</text>
  </g>
  <g
     id="edge1"
     class="edge"
     transform="matrix(1.9851961,0,0,1.9851961,5.0325116,318.30634)">
    <title
       id="title4">start-&gt;</title>
    <path
       fill="none"
       stroke="#000000"
       d="m 24.73,-100.92 c 3.02,0 8.06,0 13.48,0"
       id="path4" />
    <polygon
       fill="#000000"
       stroke="#000000"
       points="38.02,-100.92 38.02,-100.92 42.74,-100.92 38.02,-97.77 45.02,-100.92 38.02,-104.07 42.74,-100.92 38.02,-100.92 "
       id="polygon4" />
  </g>
  <g
     id="node6"
     class="node"
     transform="matrix(1.9851961,0,0,1.9851961,5.0325116,318.30634)">
    <title
       id="title5">_a</title>
    <text
       text-anchor="middle"
       x="123.86"
       y="-122.32"
       font-family="Times, serif"
       font-size="12px"
       fill="#66c2a5"
       id="text5">a | 1.0</text>
  </g>
  <g
     id="edge4"
     class="edge"
     transform="matrix(1.9851961,0,0,1.9851961,5.0325116,318.30634)">
    <title
       id="title6">-&gt;_a</title>
    <path
       fill="none"
       stroke="#000000"
       d="m 79.41,-107.36 c 7.04,-3.01 15.53,-6.64 23.13,-9.88"
       id="path6" />
  </g>
  <g
     id="node3"
     class="node"
     transform="matrix(1.9851961,0,0,1.9851961,5.0325116,318.30634)">
    <title
       id="title7">2'</title>
    <circle
       fill="none"
       stroke="#000000"
       cx="189.06"
       cy="-131.92"
       id="ellipse7"
       r="16.92" />
    <text
       text-anchor="middle"
       x="189.06"
       y="-128.92"
       font-family="sans-serif"
       font-size="10px"
       id="text7">2'</text>
    <text
       text-anchor="middle"
       x="167.69"
       y="-106"
       font-family="sans-serif"
       font-size="10px"
       id="text8">s1</text>
  </g>
  <g
     id="node4"
     class="node"
     transform="matrix(1.9851961,0,0,1.9851961,5.0325116,318.30634)">
    <title
       id="title8">2'_v</title>
    <text
       text-anchor="middle"
       x="254.25999"
       y="-135.32001"
       font-family="Times, serif"
       font-size="12px"
       fill="#66c2a5"
       id="text9">v | 1.0</text>
  </g>
  <g
     id="edge2"
     class="edge"
     transform="matrix(1.9851961,0,0,1.9851961,5.0325116,318.30634)">
    <title
       id="title9">2'-&gt;2'_v</title>
    <path
       fill="none"
       stroke="#000000"
       d="m 206.33,-133.72 c 8.05,-0.89 17.84,-1.98 26.4,-2.93"
       id="path9" />
  </g>
  <g
     id="node5"
     class="node"
     transform="matrix(1.9851961,0,0,1.9851961,5.0325116,318.30634)">
    <title
       id="title10">3'</title>
    <circle
       fill="none"
       stroke="#000000"
       cx="319.45999"
       cy="-142.92"
       id="ellipse10"
       r="16.92" />
    <text
       text-anchor="middle"
       x="319.45999"
       y="-139.92"
       font-family="sans-serif"
       font-size="10px"
       id="text10">3'</text>
    <text
       text-anchor="middle"
       x="298.09"
       y="-117"
       font-family="sans-serif"
       font-size="10px"
       id="text11">s2</text>
  </g>
  <g
     id="edge3"
     class="edge"
     transform="matrix(1.9851961,0,0,1.9851961,5.0325116,318.30634)">
    <title
       id="title11">2'_v-&gt;3'</title>
    <path
       fill="none"
       stroke="#000000"
       d="m 275.6,-140.21 c 5.96,-0.37 12.52,-0.79 18.69,-1.18"
       id="path11" />
    <polygon
       fill="#000000"
       stroke="#000000"
       points="294.15,-141.38 294.15,-141.38 298.86,-141.68 294.35,-138.24 301.14,-141.82 293.95,-144.53 298.86,-141.68 294.15,-141.38 "
       id="polygon11" />
  </g>
  <g
     id="node7"
     class="node"
     transform="matrix(1.9851961,0,0,1.9851961,5.0325116,318.30634)">
    <title
       id="title12">3'_c</title>
    <text
       text-anchor="middle"
       x="319.45999"
       y="-86.32"
       font-family="Times, serif"
       font-size="12px"
       fill="#66c2a5"
       id="text12">c | 1.0</text>
  </g>
  <g
     id="edge6"
     class="edge"
     transform="matrix(1.9851961,0,0,1.9851961,5.0325116,318.30634)">
    <title
       id="title13">3'-&gt;3'_c</title>
    <path
       fill="none"
       stroke="#000000"
       d="m 319.46,-125.59 c 0,7.2 0,14.4 0,21.59"
       id="path13" />
  </g>
  <g
     id="edge5"
     class="edge"
     transform="matrix(1.9851961,0,0,1.9851961,5.0325116,318.30634)">
    <title
       id="title14">_a-&gt;2'</title>
    <path
       fill="none"
       stroke="#000000"
       d="m 145.2,-127.85 c 5.96,-0.57 12.52,-1.19 18.69,-1.78"
       id="path14" />
    <polygon
       fill="#000000"
       stroke="#000000"
       points="163.77,-129.61 163.77,-129.61 168.47,-130.06 164.07,-126.48 170.74,-130.28 163.48,-132.75 168.47,-130.06 163.77,-129.61 "
       id="polygon14" />
  </g>
  <g
     id="node8"
     class="node"
     transform="matrix(1.9851961,0,0,1.9851961,5.0325116,318.30634)">
    <title
       id="title15">4'</title>
    <circle
       fill="#fc8d62"
       stroke="#000000"
       cx="319.45999"
       cy="-32.919998"
       id="ellipse15"
       r="16.92" />
    <circle
       fill="none"
       stroke="#000000"
       cx="319.45999"
       cy="-32.919998"
       id="ellipse16"
       r="20.92" />
    <text
       text-anchor="middle"
       x="319.45999"
       y="-29.92"
       font-family="sans-serif"
       font-size="10px"
       id="text16">4'</text>
    <text
       text-anchor="middle"
       x="294.09"
       y="-3"
       font-family="sans-serif"
       font-size="10px"
       id="text17">s3</text>
  </g>
  <g
     id="edge7"
     class="edge"
     transform="matrix(1.9851961,0,0,1.9851961,5.0325116,318.30634)">
    <title
       id="title17">3'_c-&gt;4'</title>
    <path
       fill="none"
       stroke="#000000"
       d="m 319.46,-75.73 c 0,4.47 0,8.93 0,13.4"
       id="path17" />
    <polygon
       fill="#000000"
       stroke="#000000"
       points="319.46,-62.51 319.46,-62.51 319.46,-57.8 316.31,-62.51 319.46,-55.51 322.61,-62.51 319.46,-57.8 319.46,-62.51 "
       id="polygon17" />
  </g>
  <g
     id="node9"
     class="node"
     transform="matrix(1.9851961,0,0,1.9851961,5.0325116,318.30634)">
    <title
       id="title18">4'_</title>
    <text
       text-anchor="middle"
       x="189.06"
       y="-71.32"
       font-family="Times, serif"
       font-size="12px"
       fill="#66c2a5"
       id="text18">χ | 1.0</text>
  </g>
  <g
     id="edge8"
     class="edge"
     transform="matrix(1.9851961,0,0,1.9851961,5.0325116,318.30634)">
    <title
       id="title19">4'-&gt;4'_</title>
    <path
       fill="none"
       stroke="#000000"
       d="M 299.05,-39.27 C 275.14,-47.09 234.73,-60.31 210.4,-68.26"
       id="path19" />
  </g>
  <g
     id="edge9"
     class="edge"
     transform="matrix(1.9851961,0,0,1.9851961,5.0325116,318.30634)">
    <title
       id="title20">4'_-&gt;</title>
    <path
       fill="none"
       stroke="#000000"
       d="M 167.68,-79.2 C 145.86,-83.79 111.27,-91.06 88.19,-95.91"
       id="path20" />
    <polygon
       fill="#000000"
       stroke="#000000"
       points="88.3,-95.88 88.3,-95.88 83.68,-96.85 88.95,-98.97 81.45,-97.32 87.65,-92.8 83.68,-96.85 88.3,-95.88 "
       id="polygon20" />
  </g>
</svg>
