<?xml version="1.0" encoding="UTF-8" standalone="no"?>
<svg
   width="800.08142"
   height="140.34924"
   viewBox="0 0 600.06107 105.26193"
   version="1.1"
   id="svg20"
   sodipodi:docname="updated_motivated_example_02_left.svg"
   inkscape:export-filename="updated_motivated_example_02_left.pdf"
   inkscape:export-xdpi="150"
   inkscape:export-ydpi="150"
   inkscape:version="1.3 (0e150ed6c4, 2023-07-21)"
   xmlns:inkscape="http://www.inkscape.org/namespaces/inkscape"
   xmlns:sodipodi="http://sodipodi.sourceforge.net/DTD/sodipodi-0.dtd"
   xmlns="http://www.w3.org/2000/svg"
   xmlns:svg="http://www.w3.org/2000/svg">
  <defs
     id="defs20" />
  <sodipodi:namedview
     id="namedview20"
     pagecolor="#ffffff"
     bordercolor="#111111"
     borderopacity="1"
     inkscape:showpageshadow="0"
     inkscape:pageopacity="0"
     inkscape:pagecheckerboard="1"
     inkscape:deskcolor="#d1d1d1"
     inkscape:zoom="0.99268293"
     inkscape:cx="408.99263"
     inkscape:cy="83.108108"
     inkscape:window-width="3440"
     inkscape:window-height="1417"
     inkscape:window-x="-8"
     inkscape:window-y="-8"
     inkscape:window-maximized="1"
     inkscape:current-layer="svg20" />
  <g
     id="node1"
     class="node"
     transform="matrix(1.3410638,0,0,1.3410638,3.3996234,109.08213)">
    <title
       id="title2">start</title>
    <circle
       fill="#000000"
       stroke="#000000"
       cx="20.82"
       cy="-28.92"
       id="ellipse2"
       r="3.5999999" />
    <text
       text-anchor="middle"
       x="8.6099997"
       y="-16.32"
       font-family="sans-serif"
       font-size="10px"
       id="text2">start</text>
  </g>
  <g
     id="node2"
     class="node"
     transform="matrix(1.3410638,0,0,1.3410638,3.3996234,109.08213)">
    <title
       id="title3" />
    <circle
       fill="#66c2a5"
       stroke="#000000"
       cx="55.34"
       cy="-28.92"
       id="ellipse3"
       r="16.92" />
    <text
       text-anchor="middle"
       x="55.34"
       y="-25.92"
       font-family="sans-serif"
       font-size="10px"
       id="text3">ε</text>
    <text
       text-anchor="middle"
       x="33.970001"
       y="-3"
       font-family="sans-serif"
       font-size="10px"
       id="text4">s0</text>
  </g>
  <g
     id="edge1"
     class="edge"
     transform="matrix(1.3410638,0,0,1.3410638,3.3996234,109.08213)">
    <title
       id="title4">start-&gt;</title>
    <path
       fill="none"
       stroke="#000000"
       d="m 24.82,-28.92 c 1.35,0 3.07,0 5.01,0"
       id="path4" />
    <polygon
       fill="#000000"
       stroke="#000000"
       points="29.79,-28.92 29.79,-28.92 34.51,-28.92 29.79,-25.77 36.79,-28.92 29.79,-32.07 34.51,-28.92 29.79,-28.92 "
       id="polygon4" />
  </g>
  <g
     id="node7"
     class="node"
     transform="matrix(1.3410638,0,0,1.3410638,3.3996234,109.08213)">
    <title
       id="title5">_a</title>
    <text
       text-anchor="middle"
       x="107.86"
       y="-50.32"
       font-family="Times, serif"
       font-size="12px"
       fill="#66c2a5"
       id="text5">a | 1.0</text>
  </g>
  <g
     id="edge4"
     class="edge"
     transform="matrix(1.3410638,0,0,1.3410638,3.3996234,109.08213)">
    <title
       id="title6">-&gt;_a</title>
    <path
       fill="none"
       stroke="#000000"
       d="m 70.95,-36.15 c 4.78,-2.37 10.18,-5.04 15.32,-7.58"
       id="path6" />
  </g>
  <g
     id="node3"
     class="node"
     transform="matrix(1.3410638,0,0,1.3410638,3.3996234,109.08213)">
    <title
       id="title7">&lt;a&gt;</title>
    <circle
       fill="none"
       stroke="#000000"
       cx="160.38"
       cy="-56.919998"
       id="ellipse7"
       r="16.92" />
    <text
       text-anchor="middle"
       x="160.38"
       y="-53.919998"
       font-family="sans-serif"
       font-size="10px"
       id="text7">1</text>
    <text
       text-anchor="middle"
       x="139.00999"
       y="-31"
       font-family="sans-serif"
       font-size="10px"
       id="text8">s1</text>
  </g>
  <g
     id="node6"
     class="node"
     transform="matrix(1.3410638,0,0,1.3410638,3.3996234,109.08213)">
    <title
       id="title8">&lt;a&gt;_v</title>
    <text
       text-anchor="middle"
       x="212.89999"
       y="-53.32"
       font-family="Times, serif"
       font-size="12px"
       fill="#66c2a5"
       id="text9">v | 1.0</text>
  </g>
  <g
     id="edge2"
     class="edge"
     transform="matrix(1.3410638,0,0,1.3410638,3.3996234,109.08213)">
    <title
       id="title9">&lt;a&gt;-&gt;&lt;a&gt;_v</title>
    <path
       fill="none"
       stroke="#000000"
       d="m 177.64,-56.92 c 4.38,0 9.18,0 13.77,0"
       id="path9" />
  </g>
  <g
     id="node4"
     class="node"
     transform="matrix(1.3410638,0,0,1.3410638,3.3996234,109.08213)">
    <title
       id="title10">&lt;v&gt;</title>
    <circle
       fill="none"
       stroke="#000000"
       cx="265.42001"
       cy="-57.919998"
       id="ellipse10"
       r="16.92" />
    <text
       text-anchor="middle"
       x="265.42001"
       y="-54.919998"
       font-family="sans-serif"
       font-size="10px"
       id="text10">2</text>
    <text
       text-anchor="middle"
       x="244.05"
       y="-32"
       font-family="sans-serif"
       font-size="10px"
       id="text11">s2</text>
  </g>
  <g
     id="node8"
     class="node"
     transform="matrix(1.3410638,0,0,1.3410638,3.3996234,109.08213)">
    <title
       id="title11">&lt;v&gt;_c</title>
    <text
       text-anchor="middle"
       x="317.94"
       y="-55.32"
       font-family="Times, serif"
       font-size="12px"
       fill="#66c2a5"
       id="text12">c | 1.0</text>
  </g>
  <g
     id="edge6"
     class="edge"
     transform="matrix(1.3410638,0,0,1.3410638,3.3996234,109.08213)">
    <title
       id="title12">&lt;v&gt;-&gt;&lt;v&gt;_c</title>
    <path
       fill="none"
       stroke="#000000"
       d="m 282.68,-58.24 c 4.38,-0.09 9.18,-0.18 13.77,-0.27"
       id="path12" />
  </g>
  <g
     id="node5"
     class="node"
     transform="matrix(1.3410638,0,0,1.3410638,3.3996234,109.08213)">
    <title
       id="title13">&lt;c&gt;</title>
    <circle
       fill="#fc8d62"
       stroke="#000000"
       cx="374.45999"
       cy="-59.919998"
       id="ellipse13"
       r="16.92" />
    <circle
       fill="none"
       stroke="#000000"
       cx="374.45999"
       cy="-59.919998"
       id="ellipse14"
       r="20.92" />
    <text
       text-anchor="middle"
       x="374.45999"
       y="-56.919998"
       font-family="sans-serif"
       font-size="10px"
       id="text14">3</text>
    <text
       text-anchor="middle"
       x="349.09"
       y="-30"
       font-family="sans-serif"
       font-size="10px"
       id="text15">s3</text>
  </g>
  <g
     id="node9"
     class="node"
     transform="matrix(1.3410638,0,0,1.3410638,3.3996234,109.08213)">
    <title
       id="title15">&lt;c&gt;_</title>
    <text
       text-anchor="middle"
       x="430.98001"
       y="-28.32"
       font-family="Times, serif"
       font-size="12px"
       fill="#66c2a5"
       id="text16">χ | 1.0</text>
  </g>
  <g
     id="edge8"
     class="edge"
     transform="matrix(1.3410638,0,0,1.3410638,3.3996234,109.08213)">
    <title
       id="title16">&lt;c&gt;-&gt;&lt;c&gt;_</title>
    <path
       fill="none"
       stroke="#000000"
       d="m 393.61,-50.6 c 5.08,2.61 10.64,5.47 15.84,8.14"
       id="path16" />
  </g>
  <g
     id="edge3"
     class="edge"
     transform="matrix(1.3410638,0,0,1.3410638,3.3996234,109.08213)">
    <title
       id="title17">&lt;a&gt;_v-&gt;&lt;v&gt;</title>
    <path
       fill="none"
       stroke="#000000"
       d="m 234.45,-57.33 c 1.86,-0.03 3.76,-0.07 5.65,-0.11"
       id="path17" />
    <polygon
       fill="#000000"
       stroke="#000000"
       points="240.01,-57.44 240.01,-57.44 244.72,-57.53 240.07,-54.29 247.01,-57.58 239.94,-60.59 244.72,-57.53 240.01,-57.44 "
       id="polygon17" />
  </g>
  <g
     id="edge5"
     class="edge"
     transform="matrix(1.3410638,0,0,1.3410638,3.3996234,109.08213)">
    <title
       id="title18">_a-&gt;&lt;a&gt;</title>
    <path
       fill="none"
       stroke="#000000"
       d="m 129.41,-55.14 c 1.86,-0.11 3.76,-0.22 5.65,-0.34"
       id="path18" />
    <polygon
       fill="#000000"
       stroke="#000000"
       points="134.98,-55.47 134.98,-55.47 139.69,-55.75 135.17,-52.33 141.97,-55.89 134.79,-58.62 139.69,-55.75 134.98,-55.47 "
       id="polygon18" />
  </g>
  <g
     id="edge7"
     class="edge"
     transform="matrix(1.3410638,0,0,1.3410638,3.3996234,109.08213)">
    <title
       id="title19">&lt;v&gt;_c-&gt;&lt;c&gt;</title>
    <path
       fill="none"
       stroke="#000000"
       d="m 339.24,-59.29 c 2.01,-0.04 4.08,-0.08 6.15,-0.12"
       id="path19" />
    <polygon
       fill="#000000"
       stroke="#000000"
       points="345.1,-59.4 345.1,-59.4 349.82,-59.49 345.16,-56.25 352.1,-59.53 345.05,-62.55 349.82,-59.49 345.1,-59.4 "
       id="polygon19" />
  </g>
  <g
     id="edge9"
     class="edge"
     transform="matrix(1.3410638,0,0,1.3410638,3.3996234,109.08213)">
    <title
       id="title20">&lt;c&gt;_-&gt;</title>
    <path
       fill="none"
       stroke="#000000"
       d="m 409.46,-23.82 c -22.01,7.95 -58.18,18.9 -90.52,18.9 -159.56,0 -159.56,0 -159.56,0 -28.22,0 -59.67,-8.64 -80.32,-15.55"
       id="path20" />
    <polygon
       fill="#000000"
       stroke="#000000"
       points="79.21,-20.42 79.21,-20.42 74.75,-21.97 80.24,-23.4 72.59,-22.71 78.18,-17.45 74.75,-21.97 79.21,-20.42 "
       id="polygon20" />
  </g>
</svg>
